<svg width="141" height="52" viewBox="0 0 141 52" fill="none" xmlns="http://www.w3.org/2000/svg">
<path d="M20.2891 16.546C20.2891 15.9582 20.1627 15.3763 19.9171 14.8333C19.6715 14.2903 19.3115 13.7969 18.8576 13.3813C18.4038 12.9657 17.865 12.636 17.272 12.4111C16.679 12.1862 16.0435 12.0704 15.4017 12.0704C14.7598 12.0704 14.1243 12.1862 13.5313 12.4111C12.9383 12.636 12.3995 12.9657 11.9457 13.3813C11.4918 13.7969 11.1318 14.2903 10.8862 14.8333C10.6406 15.3763 10.5142 15.9582 10.5142 16.546C10.519 17.2434 10.7038 17.9299 11.0533 18.5496C9.93182 18.8581 8.96912 19.5261 8.34133 20.4313C7.71354 21.3365 7.46263 22.4185 7.63451 23.4792C7.80639 24.5399 8.38956 25.5085 9.27734 26.2077C10.1651 26.907 11.2982 27.2902 12.4692 27.2873" stroke="white" stroke-width="1.3775" stroke-linecap="round" stroke-linejoin="round"/>
<path d="M7.61885 25.262C6.82188 25.8654 6.19467 26.6352 5.78989 27.5065C5.38512 28.3779 5.2146 29.3255 5.29265 30.2698C5.37071 31.214 5.69507 32.1273 6.23848 32.9329C6.78189 33.7386 7.52849 34.4131 8.41557 34.8997C9.30264 35.3864 10.3043 35.671 11.3364 35.7297C12.3685 35.7884 13.4009 35.6195 14.347 35.237C15.293 34.8546 16.125 34.2699 16.773 33.532C17.4211 32.7941 17.8664 31.9246 18.0714 30.9964V30.704" stroke="white" stroke-width="1.3775" stroke-miterlimit="10" stroke-linecap="round"/>
<path d="M12.0954 42.8171C11.1695 42.3713 10.3944 41.7022 9.85368 40.8822C9.31302 40.0621 9.02741 39.1224 9.02773 38.1645C9.03342 37.3455 9.25033 36.5393 9.66078 35.8117" stroke="white" stroke-width="1.3775" stroke-linecap="round" stroke-linejoin="round"/>
<path d="M21.8527 20.5595C21.8527 21.6805 21.3663 22.7557 20.5007 23.5484C19.635 24.341 18.4609 24.7864 17.2367 24.7864" stroke="white" stroke-width="1.3775" stroke-miterlimit="10" stroke-linecap="round"/>
<path d="M21.8527 20.5679H32.4693L34.3351 18.8603" stroke="white" stroke-width="1.3775" stroke-miterlimit="10" stroke-linecap="round"/>
<path d="M27.8534 23.9495H33.3925L35.2583 22.2418H40.3164" stroke="white" stroke-width="1.3775" stroke-miterlimit="10" stroke-linecap="round"/>
<path d="M27.3152 34.0771H32.4693L34.3351 35.7848" stroke="white" stroke-width="1.3775" stroke-miterlimit="10" stroke-linecap="round"/>
<path d="M27.3152 30.6956H33.3925L35.2583 32.4033H40.3164" stroke="white" stroke-width="1.3775" stroke-miterlimit="10" stroke-linecap="round"/>
<path d="M40.3164 39.1665H33.4119L32.008 37.4583L27.4303 37.4584V42.5747C27.4303 43.6957 26.9439 44.7709 26.0783 45.5636C25.2126 46.3563 24.0385 46.8016 22.8143 46.8016C21.5901 46.8016 20.416 46.3563 19.5503 45.5636C18.6847 44.7709 18.1984 43.6957 18.1984 42.5747" stroke="white" stroke-width="1.3775" stroke-miterlimit="10" stroke-linecap="round"/>
<path d="M20.0448 10.5281C20.253 9.7091 20.7828 8.98879 21.5335 8.50437C22.2841 8.01995 23.2031 7.80524 24.1155 7.90114C25.0278 7.99705 25.8698 8.39685 26.481 9.02444C27.0923 9.65202 27.4301 10.4635 27.4303 11.3045V17.1864L31.5465 17.1865L33.4119 15.4784H40.3164" stroke="white" stroke-width="1.3775" stroke-miterlimit="10" stroke-linecap="round"/>
<path d="M37.5469 27.3225H27.4303" stroke="white" stroke-width="1.3775" stroke-miterlimit="10" stroke-linecap="round"/>
<path d="M14.4671 24.7864C14.977 24.7864 15.3903 24.4079 15.3903 23.941C15.3903 23.4741 14.977 23.0956 14.4671 23.0956C13.9573 23.0956 13.544 23.4741 13.544 23.941C13.544 24.4079 13.9573 24.7864 14.4671 24.7864Z" fill="white"/>
<path d="M15.198 44.6528C15.7079 44.6528 16.1212 44.2743 16.1212 43.8074C16.1212 43.3406 15.7079 42.9621 15.198 42.9621C14.6882 42.9621 14.2748 43.3406 14.2748 43.8074C14.2748 44.2743 14.6882 44.6528 15.198 44.6528Z" fill="white"/>
<path d="M42.6052 17.178C43.625 17.178 44.4516 16.421 44.4516 15.4872C44.4516 14.5534 43.625 13.7964 42.6052 13.7964C41.5855 13.7964 40.7589 14.5534 40.7589 15.4872C40.7589 16.421 41.5855 17.178 42.6052 17.178Z" stroke="white" stroke-width="1.3775" stroke-miterlimit="10" stroke-linecap="round"/>
<path d="M42.6052 23.941C43.625 23.941 44.4516 23.184 44.4516 22.2502C44.4516 21.3165 43.625 20.5595 42.6052 20.5595C41.5855 20.5595 40.7589 21.3165 40.7589 22.2502C40.7589 23.184 41.5855 23.941 42.6052 23.941Z" stroke="white" stroke-width="1.3775" stroke-miterlimit="10" stroke-linecap="round"/>
<path d="M42.6052 34.0856C43.625 34.0856 44.4516 33.3286 44.4516 32.3948C44.4516 31.461 43.625 30.704 42.6052 30.704C41.5855 30.704 40.7589 31.461 40.7589 32.3948C40.7589 33.3286 41.5855 34.0856 42.6052 34.0856Z" stroke="white" stroke-width="1.3775" stroke-miterlimit="10" stroke-linecap="round"/>
<path d="M42.6052 40.8486C43.625 40.8486 44.4516 40.0916 44.4516 39.1579C44.4516 38.2241 43.625 37.4671 42.6052 37.4671C41.5855 37.4671 40.7589 38.2241 40.7589 39.1579C40.7589 40.0916 41.5855 40.8486 42.6052 40.8486Z" stroke="white" stroke-width="1.3775" stroke-miterlimit="10" stroke-linecap="round"/>
<path d="M72.2295 12.5318V28.1724H70.9189V12.5318H72.2295ZM77.5898 12.5318V13.6705H65.5693V12.5318H77.5898ZM85.5111 13.4664L80.0971 28.1724H78.7221L84.6303 12.5318H85.5863L85.5111 13.4664ZM90.4311 28.1724L85.0063 13.4664L84.9311 12.5318H85.8871L91.8061 28.1724H90.4311ZM89.4643 22.6509V23.7896H81.1605V22.6509H89.4643ZM104.078 24.3267C104.078 23.897 104.006 23.5139 103.863 23.1773C103.72 22.8407 103.484 22.5399 103.154 22.275C102.832 22.0028 102.395 21.7522 101.844 21.523C101.299 21.2867 100.619 21.0539 99.8025 20.8248C99.0219 20.6028 98.3165 20.3593 97.6863 20.0943C97.0561 19.8293 96.5154 19.525 96.0643 19.1812C95.6202 18.8375 95.2801 18.4364 95.0438 17.9781C94.8074 17.5126 94.6893 16.9719 94.6893 16.356C94.6893 15.7544 94.8182 15.2066 95.076 14.7125C95.3338 14.2183 95.6954 13.7922 96.1609 13.4341C96.6336 13.0761 97.1886 12.8003 97.826 12.607C98.4705 12.4136 99.1759 12.3169 99.9422 12.3169C101.038 12.3169 101.983 12.5246 102.778 12.94C103.58 13.3554 104.2 13.9175 104.637 14.6265C105.081 15.3283 105.303 16.1161 105.303 16.9898H103.981C103.981 16.3095 103.82 15.7043 103.498 15.1744C103.183 14.6373 102.724 14.2183 102.123 13.9175C101.528 13.6096 100.802 13.4556 99.9422 13.4556C99.0828 13.4556 98.3595 13.5881 97.7723 13.8531C97.1922 14.1109 96.7518 14.4582 96.451 14.8951C96.1574 15.3248 96.0105 15.8046 96.0105 16.3345C96.0105 16.7069 96.0822 17.0507 96.2254 17.3658C96.3686 17.6737 96.6014 17.9638 96.9236 18.2359C97.2531 18.5009 97.6863 18.7515 98.2234 18.9878C98.7605 19.217 99.423 19.4354 100.211 19.6431C101.041 19.8723 101.779 20.1265 102.424 20.4058C103.068 20.6851 103.612 21.0074 104.056 21.3726C104.5 21.7307 104.837 22.1496 105.066 22.6294C105.295 23.1093 105.41 23.6679 105.41 24.3052C105.41 24.9426 105.274 25.5155 105.002 26.024C104.737 26.5253 104.361 26.9514 103.874 27.3023C103.394 27.6532 102.825 27.9218 102.166 28.108C101.514 28.2942 100.802 28.3873 100.028 28.3873C99.3335 28.3873 98.6424 28.2977 97.9549 28.1187C97.2674 27.9397 96.6372 27.664 96.0643 27.2916C95.4985 26.912 95.0438 26.425 94.7 25.8306C94.3634 25.2362 94.1951 24.5272 94.1951 23.7037H95.5057C95.5057 24.3625 95.6382 24.9175 95.9031 25.3687C96.1681 25.8199 96.519 26.1851 96.9559 26.4644C97.3999 26.7437 97.8868 26.9478 98.4168 27.0767C98.9539 27.1985 99.491 27.2593 100.028 27.2593C100.852 27.2593 101.564 27.1376 102.166 26.8941C102.775 26.6506 103.244 26.3104 103.573 25.8736C103.91 25.4296 104.078 24.914 104.078 24.3267ZM110.689 12.5318V28.1724H109.367V12.5318H110.689ZM120.357 12.5318L113.611 19.6968L110.216 23.0377L110.087 21.566L112.816 18.73L118.702 12.5318H120.357ZM119.261 28.1724L112.676 20.1373L113.471 19.0738L120.862 28.1724H119.261Z" fill="white"/>
<line x1="52" y1="38.9483" x2="71" y2="38.9483" stroke="white"/>
<line x1="115" y1="38.9483" x2="134" y2="38.9483" stroke="white"/>
<path d="M76.0195 39.1743H73.6172L73.6055 38.5649H75.6738C76.0957 38.5649 76.4551 38.5044 76.752 38.3833C77.0488 38.2622 77.2734 38.0825 77.4258 37.8442C77.582 37.602 77.6602 37.3052 77.6602 36.9536C77.6602 36.5942 77.584 36.2973 77.4316 36.063C77.2793 35.8247 77.0508 35.6489 76.7461 35.5356C76.4414 35.4223 76.0586 35.3657 75.5977 35.3657H73.8047V43.2759H73.084V34.7446H75.5977C76.0312 34.7446 76.4199 34.7876 76.7637 34.8735C77.1074 34.9595 77.4004 35.0942 77.6426 35.2778C77.8848 35.4614 78.0684 35.6938 78.1934 35.9751C78.3223 36.2524 78.3867 36.5845 78.3867 36.9712C78.3867 37.3227 78.3086 37.6411 78.1523 37.9263C77.9961 38.2075 77.7754 38.438 77.4902 38.6177C77.209 38.7934 76.8711 38.9028 76.4766 38.9458L76.0195 39.1743ZM75.9668 43.2759H73.3887L73.7578 42.6606H75.9668C76.3887 42.6606 76.748 42.5903 77.0449 42.4497C77.3457 42.3052 77.5762 42.1001 77.7363 41.8345C77.8965 41.5688 77.9766 41.2524 77.9766 40.8852C77.9766 40.561 77.9062 40.27 77.7656 40.0122C77.625 39.7544 77.4102 39.5513 77.1211 39.4028C76.832 39.2505 76.4648 39.1743 76.0195 39.1743H74.5254L74.5371 38.5649H76.6523L76.7812 38.7817C77.1641 38.8208 77.498 38.9399 77.7832 39.1391C78.0723 39.3345 78.2949 39.5825 78.4512 39.8833C78.6113 40.1841 78.6914 40.5141 78.6914 40.8735C78.6914 41.3891 78.5762 41.8266 78.3457 42.186C78.1191 42.5415 77.8008 42.813 77.3906 43.0005C76.9844 43.1841 76.5098 43.2759 75.9668 43.2759ZM87.9422 38.5532V39.4673C87.9422 40.0649 87.8641 40.6059 87.7078 41.0903C87.5555 41.5708 87.3328 41.9829 87.0398 42.3266C86.7508 42.6704 86.4031 42.9341 85.9969 43.1177C85.5906 43.3013 85.1336 43.3931 84.6258 43.3931C84.1297 43.3931 83.6766 43.3013 83.2664 43.1177C82.8602 42.9341 82.5105 42.6704 82.2176 42.3266C81.9246 41.9829 81.698 41.5708 81.5379 41.0903C81.3777 40.6059 81.2977 40.0649 81.2977 39.4673V38.5532C81.2977 37.9556 81.3758 37.4165 81.532 36.936C81.6922 36.4516 81.9187 36.0376 82.2117 35.6938C82.5047 35.3501 82.8543 35.0864 83.2605 34.9028C83.6668 34.7192 84.118 34.6274 84.6141 34.6274C85.1219 34.6274 85.5789 34.7192 85.9852 34.9028C86.3914 35.0864 86.741 35.3501 87.034 35.6938C87.327 36.0376 87.5516 36.4516 87.7078 36.936C87.8641 37.4165 87.9422 37.9556 87.9422 38.5532ZM87.2273 39.4673V38.5415C87.2273 38.0376 87.1687 37.5845 87.0516 37.1821C86.9383 36.7798 86.7684 36.436 86.5418 36.1509C86.3191 35.8657 86.0457 35.647 85.7215 35.4946C85.3973 35.3423 85.0281 35.2661 84.6141 35.2661C84.2117 35.2661 83.8504 35.3423 83.5301 35.4946C83.2098 35.647 82.9363 35.8657 82.7098 36.1509C82.4871 36.436 82.3152 36.7798 82.1941 37.1821C82.077 37.5845 82.0184 38.0376 82.0184 38.5415V39.4673C82.0184 39.9751 82.077 40.4321 82.1941 40.8384C82.3152 41.2407 82.4891 41.5864 82.7156 41.8755C82.9422 42.1606 83.2156 42.3794 83.5359 42.5317C83.8602 42.6841 84.2234 42.7602 84.6258 42.7602C85.0437 42.7602 85.4129 42.6841 85.7332 42.5317C86.0535 42.3794 86.325 42.1606 86.5477 41.8755C86.7703 41.5864 86.9383 41.2407 87.0516 40.8384C87.1687 40.4321 87.2273 39.9751 87.2273 39.4673ZM97.2633 38.5532V39.4673C97.2633 40.0649 97.1852 40.6059 97.0289 41.0903C96.8766 41.5708 96.6539 41.9829 96.3609 42.3266C96.0719 42.6704 95.7242 42.9341 95.318 43.1177C94.9117 43.3013 94.4547 43.3931 93.9469 43.3931C93.4508 43.3931 92.9977 43.3013 92.5875 43.1177C92.1812 42.9341 91.8316 42.6704 91.5387 42.3266C91.2457 41.9829 91.0191 41.5708 90.859 41.0903C90.6988 40.6059 90.6187 40.0649 90.6187 39.4673V38.5532C90.6187 37.9556 90.6969 37.4165 90.8531 36.936C91.0133 36.4516 91.2398 36.0376 91.5328 35.6938C91.8258 35.3501 92.1754 35.0864 92.5816 34.9028C92.9879 34.7192 93.4391 34.6274 93.9352 34.6274C94.443 34.6274 94.9 34.7192 95.3062 34.9028C95.7125 35.0864 96.0621 35.3501 96.3551 35.6938C96.648 36.0376 96.8727 36.4516 97.0289 36.936C97.1852 37.4165 97.2633 37.9556 97.2633 38.5532ZM96.5484 39.4673V38.5415C96.5484 38.0376 96.4898 37.5845 96.3727 37.1821C96.2594 36.7798 96.0895 36.436 95.8629 36.1509C95.6402 35.8657 95.3668 35.647 95.0426 35.4946C94.7184 35.3423 94.3492 35.2661 93.9352 35.2661C93.5328 35.2661 93.1715 35.3423 92.8512 35.4946C92.5309 35.647 92.2574 35.8657 92.0309 36.1509C91.8082 36.436 91.6363 36.7798 91.5152 37.1821C91.398 37.5845 91.3395 38.0376 91.3395 38.5415V39.4673C91.3395 39.9751 91.398 40.4321 91.5152 40.8384C91.6363 41.2407 91.8102 41.5864 92.0367 41.8755C92.2633 42.1606 92.5367 42.3794 92.857 42.5317C93.1812 42.6841 93.5445 42.7602 93.9469 42.7602C94.3648 42.7602 94.734 42.6841 95.0543 42.5317C95.3746 42.3794 95.6461 42.1606 95.8687 41.8755C96.0914 41.5864 96.2594 41.2407 96.3727 40.8384C96.4898 40.4321 96.5484 39.9751 96.5484 39.4673ZM105.114 41.1782C105.114 40.9438 105.075 40.7348 104.996 40.5513C104.918 40.3677 104.789 40.2036 104.61 40.0591C104.434 39.9106 104.196 39.7739 103.895 39.6489C103.598 39.52 103.227 39.3931 102.782 39.2681C102.356 39.147 101.971 39.0141 101.627 38.8696C101.284 38.7251 100.989 38.5591 100.743 38.3716C100.5 38.1841 100.315 37.9653 100.186 37.7153C100.057 37.4614 99.9926 37.1665 99.9926 36.8306C99.9926 36.5024 100.063 36.2036 100.204 35.9341C100.344 35.6645 100.541 35.4321 100.795 35.2368C101.053 35.0415 101.356 34.8911 101.704 34.7856C102.055 34.6802 102.44 34.6274 102.858 34.6274C103.455 34.6274 103.971 34.7407 104.405 34.9673C104.842 35.1938 105.18 35.5005 105.418 35.8872C105.661 36.27 105.782 36.6997 105.782 37.1763H105.061C105.061 36.8052 104.973 36.4751 104.797 36.186C104.625 35.8931 104.375 35.6645 104.047 35.5005C103.723 35.3325 103.327 35.2485 102.858 35.2485C102.389 35.2485 101.995 35.3208 101.674 35.4653C101.358 35.6059 101.118 35.7954 100.954 36.0337C100.793 36.2681 100.713 36.5298 100.713 36.8188C100.713 37.022 100.752 37.2095 100.83 37.3813C100.909 37.5493 101.036 37.7075 101.211 37.8559C101.391 38.0005 101.627 38.1372 101.92 38.2661C102.213 38.3911 102.575 38.5102 103.004 38.6235C103.457 38.7485 103.86 38.8872 104.211 39.0395C104.563 39.1919 104.86 39.3677 105.102 39.5669C105.344 39.7622 105.528 39.9907 105.653 40.2524C105.778 40.5141 105.84 40.8188 105.84 41.1665C105.84 41.5141 105.766 41.8266 105.618 42.104C105.473 42.3774 105.268 42.6098 105.002 42.8013C104.741 42.9927 104.43 43.1391 104.071 43.2407C103.715 43.3423 103.327 43.3931 102.905 43.3931C102.526 43.3931 102.149 43.3442 101.774 43.2466C101.399 43.1489 101.055 42.9985 100.743 42.7954C100.434 42.5884 100.186 42.3227 99.9984 41.9985C99.8148 41.6743 99.723 41.2876 99.723 40.8384H100.438C100.438 41.1977 100.51 41.5005 100.655 41.7466C100.799 41.9927 100.991 42.1919 101.229 42.3442C101.471 42.4966 101.737 42.6079 102.026 42.6782C102.319 42.7446 102.612 42.7778 102.905 42.7778C103.354 42.7778 103.743 42.7114 104.071 42.5786C104.403 42.4458 104.659 42.2602 104.838 42.022C105.022 41.7798 105.114 41.4985 105.114 41.1782ZM111.458 34.7446V43.2759H110.743V34.7446H111.458ZM114.382 34.7446V35.3657H107.825V34.7446H114.382Z" fill="white"/>
</svg>
